<svg xmlns="http://www.w3.org/2000/svg" width="512" height="512" viewBox="0 0 512 512">
  <rect x="64"  y="64"  width="78" height="78" rx="12" ry="12" fill="#216e39"/>
  <rect x="166" y="64"  width="78" height="78" rx="12" ry="12" fill="#40c463"/>
  <rect x="268" y="64"  width="78" height="78" rx="12" ry="12" fill="#30a14e"/>
  <rect x="370" y="64"  width="78" height="78" rx="12" ry="12" fill="#9be9a8"/>
  <rect x="64"  y="166" width="78" height="78" rx="12" ry="12" fill="#9be9a8"/>
  <rect x="166" y="166" width="78" height="78" rx="12" ry="12" fill="#216e39"/>
  <rect x="268" y="166" width="78" height="78" rx="12" ry="12" fill="#40c463"/>
  <rect x="370" y="166" width="78" height="78" rx="12" ry="12" fill="#30a14e"/>
  <rect x="64"  y="268" width="78" height="78" rx="12" ry="12" fill="#30a14e"/>
  <rect x="166" y="268" width="78" height="78" rx="12" ry="12" fill="#9be9a8"/>
  <rect x="268" y="268" width="78" height="78" rx="12" ry="12" fill="#216e39"/>
  <rect x="370" y="268" width="78" height="78" rx="12" ry="12" fill="#40c463"/>
  <rect x="64"  y="370" width="78" height="78" rx="12" ry="12" fill="#40c463"/>
  <rect x="166" y="370" width="78" height="78" rx="12" ry="12" fill="#30a14e"/>
  <rect x="268" y="370" width="78" height="78" rx="12" ry="12" fill="#9be9a8"/>
  <rect x="370" y="370" width="78" height="78" rx="12" ry="12" fill="#216e39"/>
</svg>
